<svg xmlns="http://www.w3.org/2000/svg" xmlns:xlink="http://www.w3.org/1999/xlink" width="25px" height="25px" viewBox="0 0 25 25" version="1.1">
<g id="surface1">
<path style=" stroke:none;fill-rule:nonzero;fill:#8d8d8d;fill-opacity:1;" d="M 11.796875 18.1875 C 11.640625 18.1875 11.453125 18.125 11.328125 18 C 11.078125 17.75 11.078125 17.34375 11.328125 17.0625 L 15.890625 12.5 L 11.328125 7.9375 C 11.078125 7.6875 11.078125 7.28125 11.328125 7 C 11.578125 6.75 11.984375 6.75 12.265625 7 L 17.296875 12.03125 C 17.421875 12.15625 17.484375 12.3125 17.484375 12.5 C 17.484375 12.6875 17.421875 12.84375 17.296875 12.96875 L 12.265625 18 C 12.140625 18.125 11.953125 18.1875 11.796875 18.1875 Z M 8.078125 18.1875 C 7.921875 18.1875 7.734375 18.125 7.609375 18 C 7.359375 17.75 7.359375 17.34375 7.609375 17.0625 L 12.171875 12.5 L 7.609375 7.9375 C 7.359375 7.6875 7.359375 7.28125 7.609375 7 C 7.859375 6.75 8.265625 6.75 8.546875 7 L 13.578125 12.03125 C 13.703125 12.15625 13.765625 12.3125 13.765625 12.5 C 13.765625 12.6875 13.703125 12.84375 13.578125 12.96875 L 8.546875 18 C 8.421875 18.125 8.234375 18.1875 8.078125 18.1875 Z M 8.078125 18.1875 "/>
</g>
</svg>