<?xml version="1.0" encoding="utf-8"?><svg viewBox="0 0 22 20" xmlns="http://www.w3.org/2000/svg" xmlns:xlink="http://www.w3.org/1999/xlink"><style>:root>svg{display:none}:root>svg:target{display:block}</style><svg viewBox="0 0 22 20" id="cart" xmlns="http://www.w3.org/2000/svg"><path d="M1527.44 65a2.724 2.724 0 1 1 2.74-2.724 2.738 2.738 0 0 1-2.74 2.724Zm0-3.814a1.09 1.09 0 1 0 1.09 1.09 1.094 1.094 0 0 0-1.09-1.093Zm1.75-2.806h-12.81a.823.823 0 0 1-.8-.628l-2.68-11.115h-2.06a.817.817 0 1 1 0-1.634h2.71a.824.824 0 0 1 .8.627l.74 3.078h16.1a.818.818 0 0 1 .8 1.014l-2 8.038a.822.822 0 0 1-.8.617Zm-12.16-1.635h11.52l1.59-6.4h-14.65Zm.45 8.255a2.724 2.724 0 1 1 2.74-2.724 2.738 2.738 0 0 1-2.74 2.724Zm0-3.814a1.09 1.09 0 1 0 1.09 1.09 1.094 1.094 0 0 0-1.09-1.093Z" transform="translate(-1510 -45)" style="fill:#29282d;fill-rule:evenodd"/></svg><svg viewBox="0 0 20 20" id="heart" xmlns="http://www.w3.org/2000/svg"><path d="M1484.78 49.589a6.683 6.683 0 0 0-4.17-4.371c-1.71-.595-3.75 0-5.58 1.611-1.83-1.569-3.88-2.122-5.58-1.569a6.884 6.884 0 0 0-4.17 4.371c-.47 1.57-.51 4.117 1.95 7.215 1.11 1.4 2.82 3.4 4.22 4.965 2.68 3.014 3.11 3.183 3.49 3.183h.17c.39 0 .77-.168 3.45-3.224a224.86 224.86 0 0 0 4.22-4.966c2.47-3.098 2.47-5.645 2-7.215Zm-3.28 6.2c-1.96 2.462-5.32 6.324-6.47 7.385-1.15-1.061-4.52-4.924-6.48-7.385-1.61-1.994-2.21-3.947-1.7-5.687a4.986 4.986 0 0 1 3.11-3.225c1.23-.467 2.9.169 4.43 1.655a.84.84 0 0 0 1.06.126.447.447 0 0 0 .22-.17c1.53-1.443 3.19-2.079 4.42-1.655a5.168 5.168 0 0 1 3.11 3.268c.51 1.699-.08 3.689-1.7 5.683Z" transform="translate(-1465.03 -45)" style="fill:#29282d;fill-rule:evenodd"/></svg><svg viewBox="0 0 20.03 20" id="search" xmlns="http://www.w3.org/2000/svg"><path d="m1439.89 63.7-5.81-5.81a7.944 7.944 0 1 0-1.18 1.178l5.81 5.81a.417.417 0 0 0 .59 0l.59-.589a.421.421 0 0 0 0-.589Zm-11.96-4.533a6.25 6.25 0 1 1 6.25-6.25 6.254 6.254 0 0 1-6.25 6.246Z" transform="translate(-1420 -45)" style="fill:#29282d;fill-rule:evenodd"/></svg><svg viewBox="0 0 20 20" id="user" xmlns="http://www.w3.org/2000/svg"><path fill="#29282d" fill-rule="evenodd" d="M17.07 12.928a9.923 9.923 0 0 0-3.8-2.383 5.78 5.78 0 1 0-6.54 0A10.018 10.018 0 0 0 0 20h1.56a8.44 8.44 0 0 1 16.88 0H20a9.931 9.931 0 0 0-2.93-7.072ZM5.78 5.78A4.22 4.22 0 1 1 10 10a4.222 4.222 0 0 1-4.22-4.22Z"/></svg></svg>