<?xml version="1.0" encoding="utf-8"?><svg viewBox="0 0 120 121" xmlns="http://www.w3.org/2000/svg" xmlns:xlink="http://www.w3.org/1999/xlink"><style>:root>svg{display:none}:root>svg:target{display:block}</style><svg viewBox="0 0 22 20" id="cart" xmlns="http://www.w3.org/2000/svg"><path d="M1527.44 65a2.724 2.724 0 1 1 2.74-2.724 2.738 2.738 0 0 1-2.74 2.724Zm0-3.814a1.09 1.09 0 1 0 1.09 1.09 1.094 1.094 0 0 0-1.09-1.093Zm1.75-2.806h-12.81a.823.823 0 0 1-.8-.628l-2.68-11.115h-2.06a.817.817 0 1 1 0-1.634h2.71a.824.824 0 0 1 .8.627l.74 3.078h16.1a.818.818 0 0 1 .8 1.014l-2 8.038a.822.822 0 0 1-.8.617Zm-12.16-1.635h11.52l1.59-6.4h-14.65Zm.45 8.255a2.724 2.724 0 1 1 2.74-2.724 2.738 2.738 0 0 1-2.74 2.724Zm0-3.814a1.09 1.09 0 1 0 1.09 1.09 1.094 1.094 0 0 0-1.09-1.093Z" transform="translate(-1510 -45)" style="fill:#29282d;fill-rule:evenodd"/></svg><svg viewBox="0 0 20 20" id="heart" xmlns="http://www.w3.org/2000/svg"><path d="M1484.78 49.589a6.683 6.683 0 0 0-4.17-4.371c-1.71-.595-3.75 0-5.58 1.611-1.83-1.569-3.88-2.122-5.58-1.569a6.884 6.884 0 0 0-4.17 4.371c-.47 1.57-.51 4.117 1.95 7.215 1.11 1.4 2.82 3.4 4.22 4.965 2.68 3.014 3.11 3.183 3.49 3.183h.17c.39 0 .77-.168 3.45-3.224a224.86 224.86 0 0 0 4.22-4.966c2.47-3.098 2.47-5.645 2-7.215Zm-3.28 6.2c-1.96 2.462-5.32 6.324-6.47 7.385-1.15-1.061-4.52-4.924-6.48-7.385-1.61-1.994-2.21-3.947-1.7-5.687a4.986 4.986 0 0 1 3.11-3.225c1.23-.467 2.9.169 4.43 1.655a.84.84 0 0 0 1.06.126.447.447 0 0 0 .22-.17c1.53-1.443 3.19-2.079 4.42-1.655a5.168 5.168 0 0 1 3.11 3.268c.51 1.699-.08 3.689-1.7 5.683Z" transform="translate(-1465.03 -45)" style="fill:#29282d;fill-rule:evenodd"/></svg><svg viewBox="0 0 65 52" id="info-after" xmlns="http://www.w3.org/2000/svg"><path d="M1505.75 1203a1.735 1.735 0 1 1-1.75 1.73 1.741 1.741 0 0 1 1.75-1.73Zm12.3 0a1.735 1.735 0 1 1-1.77 1.73 1.75 1.75 0 0 1 1.77-1.73Zm12.29 0a1.735 1.735 0 1 1-1.75 1.73 1.741 1.741 0 0 1 1.75-1.73Zm12.32 0a1.735 1.735 0 1 1-1.75 1.73 1.748 1.748 0 0 1 1.75-1.73Zm12.29 0a1.735 1.735 0 1 1-1.76 1.73 1.752 1.752 0 0 1 1.76-1.73Zm12.3 0a1.735 1.735 0 1 1-1.75 1.73 1.741 1.741 0 0 1 1.75-1.73Zm-61.5 12.12a1.735 1.735 0 1 1-1.75 1.74 1.743 1.743 0 0 1 1.75-1.74Zm12.3 0a1.735 1.735 0 1 1-1.77 1.74 1.752 1.752 0 0 1 1.77-1.74Zm12.29 0a1.735 1.735 0 1 1-1.75 1.74 1.743 1.743 0 0 1 1.75-1.74Zm12.32 0a1.735 1.735 0 1 1-1.75 1.74 1.75 1.75 0 0 1 1.75-1.74Zm12.29 0a1.735 1.735 0 1 1-1.76 1.74 1.754 1.754 0 0 1 1.76-1.74Zm12.3 0a1.735 1.735 0 1 1-1.75 1.74 1.743 1.743 0 0 1 1.75-1.74Zm-61.5 12.16a1.72 1.72 0 1 1-1.75 1.72 1.733 1.733 0 0 1 1.75-1.72Zm12.3 0a1.721 1.721 0 1 1-1.77 1.72 1.742 1.742 0 0 1 1.77-1.72Zm12.29 0a1.72 1.72 0 1 1-1.75 1.72 1.733 1.733 0 0 1 1.75-1.72Zm12.32 0a1.72 1.72 0 1 1-1.75 1.72 1.739 1.739 0 0 1 1.75-1.72Zm12.29 0a1.72 1.72 0 1 1-1.76 1.72 1.744 1.744 0 0 1 1.76-1.72Zm12.3 0a1.72 1.72 0 1 1-1.75 1.72 1.733 1.733 0 0 1 1.75-1.72Zm-61.5 12.13a1.73 1.73 0 1 1-1.75 1.73 1.735 1.735 0 0 1 1.75-1.73Zm12.3 0a1.73 1.73 0 1 1-1.77 1.73 1.744 1.744 0 0 1 1.77-1.73Zm12.29 0a1.73 1.73 0 1 1-1.75 1.73 1.735 1.735 0 0 1 1.75-1.73Zm12.32 0a1.73 1.73 0 1 1-1.75 1.73 1.741 1.741 0 0 1 1.75-1.73Zm12.29 0a1.73 1.73 0 1 1-1.76 1.73 1.746 1.746 0 0 1 1.76-1.73Zm12.3 0a1.73 1.73 0 1 1-1.75 1.73 1.735 1.735 0 0 1 1.75-1.73Zm-61.5 12.12a1.735 1.735 0 1 1-1.75 1.74 1.743 1.743 0 0 1 1.75-1.74Zm12.3 0a1.735 1.735 0 1 1-1.77 1.74 1.752 1.752 0 0 1 1.77-1.74Zm12.29 0a1.735 1.735 0 1 1-1.75 1.74 1.743 1.743 0 0 1 1.75-1.74Zm12.32 0a1.735 1.735 0 1 1-1.75 1.74 1.75 1.75 0 0 1 1.75-1.74Zm12.29 0a1.735 1.735 0 1 1-1.76 1.74 1.754 1.754 0 0 1 1.76-1.74Zm12.3 0a1.735 1.735 0 1 1-1.75 1.74 1.743 1.743 0 0 1 1.75-1.74Z" transform="translate(-1504 -1203)" style="fill:#fe3e57;fill-rule:evenodd"/></svg><svg viewBox="0 0 120 121" id="info-before" xmlns="http://www.w3.org/2000/svg"><path d="M391.989 1011.99c-.375 0-.748 0-1.121-.01a.582.582 0 0 1-.576-.6.592.592 0 0 1 .6-.58c1.348.03 2.718 0 4.067-.06a.577.577 0 0 1 .615.56.6.6 0 0 1-.557.62c-1.004.05-2.017.07-3.028.07Zm-5.21-.22a.094.094 0 0 1-.051-.01 63.135 63.135 0 0 1-4.116-.5.592.592 0 0 1 .182-1.17c1.333.21 2.691.38 4.036.5a.582.582 0 0 1 .533.64.594.594 0 0 1-.584.54Zm12.3-.2a.588.588 0 0 1-.583-.52.6.6 0 0 1 .514-.66c1.343-.16 2.694-.37 4.018-.62a.59.59 0 0 1 .219 1.16c-1.35.26-2.729.47-4.1.64h-.069Zm-20.406-1.09a.583.583 0 0 1-.131-.01 55.33 55.33 0 0 1-4.008-1.08.59.59 0 0 1 .341-1.13c1.29.4 2.612.75 3.929 1.06a.588.588 0 0 1-.133 1.16Zm28.468-.45a.592.592 0 0 1-.566-.44.585.585 0 0 1 .418-.72c1.3-.35 2.614-.75 3.893-1.18a.581.581 0 0 1 .745.37.6.6 0 0 1-.368.75c-1.305.44-2.641.85-3.972 1.2a.772.772 0 0 1-.152.02Zm-36.328-1.95a.514.514 0 0 1-.209-.04 59.268 59.268 0 0 1-3.826-1.63.591.591 0 0 1-.286-.78.581.581 0 0 1 .78-.29c1.227.57 2.488 1.11 3.75 1.59a.6.6 0 0 1-.211 1.15Zm44.1-.7a.594.594 0 0 1-.227-1.14c1.243-.53 2.484-1.1 3.69-1.71a.581.581 0 0 1 .788.26.587.587 0 0 1-.26.79c-1.231.63-2.5 1.21-3.765 1.75a.611.611 0 0 1-.231.05Zm-51.552-2.79a.575.575 0 0 1-.282-.07 62.106 62.106 0 0 1-3.564-2.14.6.6 0 0 1-.175-.82.579.579 0 0 1 .812-.18 54.93 54.93 0 0 0 3.493 2.1.6.6 0 0 1 .231.81.592.592 0 0 1-.52.3Zm58.88-.93a.577.577 0 0 1-.5-.29.6.6 0 0 1 .2-.81 54.46 54.46 0 0 0 3.423-2.21.593.593 0 0 1 .667.98 61.68 61.68 0 0 1-3.491 2.25.543.543 0 0 1-.304.08Zm-65.782-3.55a.573.573 0 0 1-.351-.121 60.428 60.428 0 0 1-3.236-2.618.594.594 0 0 1-.062-.834.582.582 0 0 1 .827-.062 59.84 59.84 0 0 0 3.173 2.566.595.595 0 0 1-.356 1.069Zm72.535-1.143a.58.58 0 0 1-.459-.223.6.6 0 0 1 .093-.832 59.242 59.242 0 0 0 3.091-2.663.585.585 0 0 1 .83.037.594.594 0 0 1-.037.836 60.306 60.306 0 0 1-3.153 2.716.586.586 0 0 1-.37.129Zm-78.76-4.259a.581.581 0 0 1-.412-.171c-.98-.976-1.939-2-2.849-3.038a.6.6 0 0 1 .052-.836.585.585 0 0 1 .829.053 60.397 60.397 0 0 0 2.793 2.979.6.6 0 0 1 0 .837.584.584 0 0 1-.418.176Zm84.814-1.33a.581.581 0 0 1-.405-.163.6.6 0 0 1-.021-.837 57.825 57.825 0 0 0 2.7-3.066.585.585 0 0 1 .826-.078.6.6 0 0 1 .077.834 61.476 61.476 0 0 1-2.754 3.127.584.584 0 0 1-.428.183ZM344.8 988.5a.586.586 0 0 1-.467-.232 63.665 63.665 0 0 1-2.407-3.4.6.6 0 0 1 .165-.821.584.584 0 0 1 .813.166 60.314 60.314 0 0 0 2.361 3.337.593.593 0 0 1-.109.829.576.576 0 0 1-.356.121Zm95.48-1.5a.585.585 0 0 1-.341-.111.6.6 0 0 1-.135-.826 59.871 59.871 0 0 0 2.258-3.412.584.584 0 0 1 .809-.192.6.6 0 0 1 .19.815 65.322 65.322 0 0 1-2.3 3.479.586.586 0 0 1-.481.247Zm-100.01-5.4a.583.583 0 0 1-.511-.3 61.086 61.086 0 0 1-1.919-3.7.6.6 0 0 1 .275-.79.584.584 0 0 1 .783.278 60.513 60.513 0 0 0 1.882 3.631.593.593 0 0 1-.221.806.582.582 0 0 1-.289.082Zm104.33-1.639a.58.58 0 0 1-.272-.068.594.594 0 0 1-.246-.8 60.338 60.338 0 0 0 1.77-3.694.587.587 0 0 1 .774-.3.6.6 0 0 1 .3.781 60.486 60.486 0 0 1-1.806 3.769.588.588 0 0 1-.52.312Zm-107.875-5.808a.589.589 0 0 1-.546-.374 61.046 61.046 0 0 1-1.393-3.938.594.594 0 0 1 .381-.744.588.588 0 0 1 .738.384c.41 1.3.869 2.6 1.366 3.861a.593.593 0 0 1-.33.768.57.57 0 0 1-.215.043Zm111.19-1.772a.577.577 0 0 1-.2-.036.592.592 0 0 1-.353-.757c.456-1.277.874-2.59 1.243-3.9a.586.586 0 0 1 .724-.408.592.592 0 0 1 .4.73c-.375 1.34-.8 2.679-1.268 3.982a.588.588 0 0 1-.545.389Zm-113.677-6.115a.586.586 0 0 1-.57-.452 60.45 60.45 0 0 1-.838-4.094.592.592 0 0 1 .48-.683.586.586 0 0 1 .677.484c.228 1.345.5 2.7.821 4.014a.592.592 0 0 1-.431.715.56.56 0 0 1-.138.016Zm115.914-1.848a.621.621 0 0 1-.121-.012.592.592 0 0 1-.454-.7c.276-1.333.509-2.691.694-4.038a.583.583 0 0 1 .661-.506.591.591 0 0 1 .5.668 60.641 60.641 0 0 1-.708 4.118.587.587 0 0 1-.571.47Zm-117.292-6.309a.589.589 0 0 1-.584-.532 61.307 61.307 0 0 1-.27-4.172.587.587 0 1 1 1.173-.036c.042 1.359.131 2.735.265 4.09a.591.591 0 0 1-.525.648c-.019.002-.039.002-.058.002Zm118.413-1.888h-.041a.592.592 0 0 1-.546-.631 60.76 60.76 0 0 0 .023-7.851.59.59 0 0 1 .549-.627.581.581 0 0 1 .622.554 61.755 61.755 0 0 1-.022 8.001.588.588 0 0 1-.584.554Zm-118.667-6.382h-.023a.588.588 0 0 1-.564-.613c.051-1.39.149-2.793.294-4.169a.587.587 0 1 1 1.167.124 61.68 61.68 0 0 0-.289 4.089.588.588 0 0 1-.584.569Zm118.294-5.662a.589.589 0 0 1-.581-.514c-.177-1.35-.4-2.71-.671-4.043a.592.592 0 0 1 .458-.7.586.586 0 0 1 .692.462c.275 1.36.5 2.747.684 4.124a.59.59 0 0 1-.5.664.678.678 0 0 1-.082.007Zm-117.43-2.567a.583.583 0 0 1-.578-.694c.239-1.368.529-2.743.861-4.09a.583.583 0 0 1 .711-.43.592.592 0 0 1 .429.717 59.19 59.19 0 0 0-.845 4.009.588.588 0 0 1-.578.488Zm115.794-5.541a.588.588 0 0 1-.565-.434 58.9 58.9 0 0 0-1.22-3.91.6.6 0 0 1 .358-.756.587.587 0 0 1 .749.361c.46 1.312.878 2.654 1.245 3.989a.593.593 0 0 1-.41.728.607.607 0 0 1-.157.022Zm-113.81-2.487a.568.568 0 0 1-.181-.03.592.592 0 0 1-.378-.745c.425-1.319.9-2.643 1.418-3.935a.586.586 0 0 1 .764-.328.594.594 0 0 1 .325.77 59.978 59.978 0 0 0-1.39 3.858.588.588 0 0 1-.558.41Zm111.08-5.31a.59.59 0 0 1-.54-.357 59.478 59.478 0 0 0-1.743-3.7.594.594 0 0 1 .251-.8.585.585 0 0 1 .791.253 59.7 59.7 0 0 1 1.779 3.773.594.594 0 0 1-.306.778.579.579 0 0 1-.232.053ZM338.527 925.9a.584.584 0 0 1-.256-.059.594.594 0 0 1-.271-.791 60.328 60.328 0 0 1 1.944-3.7.586.586 0 0 1 .8-.218.594.594 0 0 1 .216.808 59.549 59.549 0 0 0-1.907 3.625.584.584 0 0 1-.526.335Zm104.231-4.964a.589.589 0 0 1-.5-.284 59.24 59.24 0 0 0-2.235-3.423.6.6 0 0 1 .139-.825.583.583 0 0 1 .818.141 59.153 59.153 0 0 1 2.28 3.49.6.6 0 0 1-.2.814.583.583 0 0 1-.302.084Zm-100.133-2.216a.578.578 0 0 1-.326-.1.594.594 0 0 1-.16-.821 60.702 60.702 0 0 1 2.43-3.39.583.583 0 0 1 .824-.1.6.6 0 0 1 .1.83 59.08 59.08 0 0 0-2.384 3.323.587.587 0 0 1-.484.258Zm95.388-4.536a.586.586 0 0 1-.455-.217 60.741 60.741 0 0 0-2.68-3.083.594.594 0 0 1 .025-.836.585.585 0 0 1 .83.026 61.3 61.3 0 0 1 2.734 3.144.593.593 0 0 1-.083.832.58.58 0 0 1-.371.134Zm-90.35-2a.578.578 0 0 1-.391-.151.594.594 0 0 1-.047-.835 60.527 60.527 0 0 1 2.868-3.02.584.584 0 0 1 .83.01.6.6 0 0 1-.01.836 59.957 59.957 0 0 0-2.812 2.962.586.586 0 0 1-.438.196Zm84.729-4.029a.585.585 0 0 1-.4-.158 59.124 59.124 0 0 0-3.076-2.684.6.6 0 0 1-.088-.832.584.584 0 0 1 .825-.089c1.07.87 2.126 1.791 3.137 2.737a.6.6 0 0 1 .031.836.583.583 0 0 1-.429.188Zm-78.851-1.755a.583.583 0 0 1-.448-.209.594.594 0 0 1 .067-.833c1.05-.9 2.144-1.773 3.251-2.595a.582.582 0 0 1 .82.124.594.594 0 0 1-.123.827 59.309 59.309 0 0 0-3.188 2.545.578.578 0 0 1-.379.141ZM426 902.953a.575.575 0 0 1-.336-.107 59.512 59.512 0 0 0-3.412-2.233.594.594 0 0 1-.2-.812.582.582 0 0 1 .805-.2 59.475 59.475 0 0 1 3.481 2.278.6.6 0 0 1 .144.824.585.585 0 0 1-.482.25Zm-65.855-1.453a.585.585 0 0 1-.5-.275.6.6 0 0 1 .18-.817 61.19 61.19 0 0 1 3.572-2.119.585.585 0 0 1 .8.238.6.6 0 0 1-.235.8 57.51 57.51 0 0 0-3.5 2.077.574.574 0 0 1-.317.096Zm58.816-2.807a.566.566 0 0 1-.267-.065c-1.2-.618-2.442-1.2-3.687-1.737a.593.593 0 0 1-.31-.776.585.585 0 0 1 .77-.313 59.151 59.151 0 0 1 3.761 1.773.594.594 0 0 1 .256.795.587.587 0 0 1-.523.318Zm-51.608-1.138a.587.587 0 0 1-.535-.346.6.6 0 0 1 .291-.784 59.496 59.496 0 0 1 3.826-1.6.584.584 0 0 1 .755.347.593.593 0 0 1-.344.762c-1.262.476-2.523 1-3.75 1.568a.586.586 0 0 1-.243.048Zm44.047-2.1a.583.583 0 0 1-.192-.033 56.446 56.446 0 0 0-3.886-1.2.592.592 0 0 1 .305-1.143 59.93 59.93 0 0 1 3.964 1.227.593.593 0 0 1-.191 1.139Zm-36.366-.8a.592.592 0 0 1-.168-1.159 59.477 59.477 0 0 1 4.014-1.05.592.592 0 0 1 .256 1.155 57.59 57.59 0 0 0-3.935 1.03.607.607 0 0 1-.167.018Zm28.441-1.356a.548.548 0 0 1-.113-.011 59.266 59.266 0 0 0-4.015-.648.592.592 0 0 1 .146-1.174c1.365.172 2.743.395 4.094.661a.592.592 0 0 1-.112 1.166Zm-20.431-.444a.592.592 0 0 1-.087-1.177 59.496 59.496 0 0 1 4.118-.48.591.591 0 0 1 .1 1.179c-1.348.11-2.707.269-4.038.472a.662.662 0 0 1-.093 0Zm12.287-.581h-.031a59.285 59.285 0 0 0-4.065-.087h-.008a.592.592 0 0 1-.007-1.184 60.262 60.262 0 0 1 4.145.09.592.592 0 0 1-.034 1.175Zm-3.341 107.499c-1.257 0-2.526-.05-3.772-.147a.591.591 0 0 1-.539-.636.579.579 0 0 1 .631-.544c1.215.1 2.453.144 3.679.144h.374a.592.592 0 0 1 0 1.183Zm4.477-.211a.592.592 0 0 1-.055-1.18c1.345-.128 2.7-.316 4.017-.559a.591.591 0 0 1 .211 1.164c-1.355.249-2.74.442-4.118.572a.507.507 0 0 1-.055.003Zm-12.278-.435a.526.526 0 0 1-.1-.008 47.311 47.311 0 0 1-4.067-.865.591.591 0 0 1 .292-1.146c1.3.337 2.636.621 3.967.844a.592.592 0 0 1-.092 1.175Zm20.349-1.05a.593.593 0 0 1-.155-1.163c1.3-.359 2.6-.781 3.859-1.253a.591.591 0 0 1 .408 1.109 47.525 47.525 0 0 1-3.956 1.286.609.609 0 0 1-.156.021Zm-28.294-1.01a.611.611 0 0 1-.2-.033c-1.3-.464-2.6-.991-3.858-1.568a.593.593 0 0 1-.291-.783.584.584 0 0 1 .777-.294 46.58 46.58 0 0 0 3.763 1.528.593.593 0 0 1 .358.755.586.586 0 0 1-.549.395Zm35.984-1.867a.587.587 0 0 1-.531-.339.594.594 0 0 1 .279-.788 46.635 46.635 0 0 0 3.584-1.91.585.585 0 0 1 .8.212.593.593 0 0 1-.21.809 47.757 47.757 0 0 1-3.674 1.959.592.592 0 0 1-.248.057Zm-43.457-1.557a.582.582 0 0 1-.288-.077 48.277 48.277 0 0 1-3.529-2.217.6.6 0 0 1-.153-.822.585.585 0 0 1 .817-.154c1.111.768 2.27 1.5 3.442 2.163a.594.594 0 0 1 .223.806.586.586 0 0 1-.512.301Zm50.536-2.622a.583.583 0 0 1-.479-.25.594.594 0 0 1 .139-.825 45.947 45.947 0 0 0 3.2-2.506.584.584 0 0 1 .827.069.6.6 0 0 1-.068.834 48.48 48.48 0 0 1-3.285 2.569.584.584 0 0 1-.334.109ZM362 988.967a.583.583 0 0 1-.372-.134 48.628 48.628 0 0 1-3.1-2.8.6.6 0 0 1-.009-.837.585.585 0 0 1 .83-.01 46.824 46.824 0 0 0 3.021 2.729.594.594 0 0 1 .081.832.584.584 0 0 1-.451.22Zm63.565-3.294a.578.578 0 0 1-.413-.172.6.6 0 0 1 0-.837 47.203 47.203 0 0 0 2.731-3.024.583.583 0 0 1 .826-.075.594.594 0 0 1 .075.833 48.119 48.119 0 0 1-2.8 3.1.586.586 0 0 1-.418.175Zm-69.436-2.486a.583.583 0 0 1-.444-.206 48.634 48.634 0 0 1-2.575-3.291.6.6 0 0 1 .133-.826.585.585 0 0 1 .82.134 48.745 48.745 0 0 0 2.511 3.211.594.594 0 0 1-.062.834.577.577 0 0 1-.382.144Zm74.691-3.867a.581.581 0 0 1-.335-.106.6.6 0 0 1-.146-.824c.77-1.115 1.5-2.276 2.173-3.454a.586.586 0 0 1 .8-.218.594.594 0 0 1 .216.808 48.173 48.173 0 0 1-2.228 3.541.586.586 0 0 1-.479.253Zm-79.486-2.844a.587.587 0 0 1-.5-.288 49.01 49.01 0 0 1-1.972-3.689.594.594 0 0 1 .273-.79.585.585 0 0 1 .784.275 47.974 47.974 0 0 0 1.924 3.6.594.594 0 0 1-.2.811.586.586 0 0 1-.308.081Zm83.577-4.33a.586.586 0 0 1-.247-.054.6.6 0 0 1-.285-.786 47.18 47.18 0 0 0 1.547-3.781.586.586 0 0 1 .752-.355.592.592 0 0 1 .351.758c-.471 1.311-1 2.615-1.585 3.877a.587.587 0 0 1-.532.341Zm-87.151-3.112a.588.588 0 0 1-.548-.382c-.491-1.3-.93-2.64-1.306-3.979a.587.587 0 1 1 1.129-.322 49.13 49.13 0 0 0 1.274 3.88.594.594 0 0 1-.34.764.569.569 0 0 1-.208.039Zm89.945-4.666a.6.6 0 0 1-.151-.02.592.592 0 0 1-.417-.724c.345-1.308.638-2.651.87-3.993a.587.587 0 1 1 1.156.2 48.552 48.552 0 0 1-.891 4.094.588.588 0 0 1-.566.443Zm-92.18-3.293a.589.589 0 0 1-.576-.481 48.944 48.944 0 0 1-.6-4.145.587.587 0 1 1 1.168-.122c.138 1.356.335 2.717.586 4.046a.591.591 0 0 1-.466.692.715.715 0 0 1-.111.01Zm93.589-4.856a.435.435 0 0 1-.051 0 .589.589 0 0 1-.534-.64c.114-1.346.173-2.72.173-4.084q0-.756-.024-1.507a.59.59 0 0 1 .568-.61.577.577 0 0 1 .6.573q.026.768.025 1.544c0 1.4-.06 2.806-.178 4.186a.587.587 0 0 1-.578.538Zm-94.422-3.371a.589.589 0 0 1-.587-.582q-.006-.385-.006-.771c0-1.137.04-2.286.119-3.417a.586.586 0 1 1 1.17.082 48.648 48.648 0 0 0-.109 4.087.59.59 0 0 1-.578.6h-.009Zm94.268-6.416a.59.59 0 0 1-.582-.522 48.015 48.015 0 0 0-.65-4.035.587.587 0 1 1 1.149-.241c.28 1.358.5 2.75.667 4.136a.59.59 0 0 1-.514.657.549.549 0 0 1-.069.005Zm-93.693-1.832a.582.582 0 0 1-.092-.008.59.59 0 0 1-.488-.676 49.02 49.02 0 0 1 .825-4.108.587.587 0 0 1 .712-.432.594.594 0 0 1 .428.718 45.872 45.872 0 0 0-.806 4.006.589.589 0 0 1-.579.5Zm92.026-6.264a.588.588 0 0 1-.562-.421c-.388-1.3-.838-2.6-1.336-3.86a.593.593 0 0 1 .328-.769.584.584 0 0 1 .762.33 48.164 48.164 0 0 1 1.37 3.958.591.591 0 0 1-.393.736.551.551 0 0 1-.169.024Zm-90.047-1.762a.58.58 0 0 1-.191-.032.594.594 0 0 1-.364-.752 47.984 47.984 0 0 1 1.523-3.9.587.587 0 0 1 .775-.3.6.6 0 0 1 .3.782 46.954 46.954 0 0 0-1.486 3.805.588.588 0 0 1-.557.395Zm87.01-5.919a.586.586 0 0 1-.525-.326 47.98 47.98 0 0 0-1.98-3.567.6.6 0 0 1 .19-.814.585.585 0 0 1 .808.192 48.727 48.727 0 0 1 2.031 3.657.594.594 0 0 1-.261.794.567.567 0 0 1-.263.062Zm-83.674-1.643a.574.574 0 0 1-.284-.074.594.594 0 0 1-.229-.8 49.164 49.164 0 0 1 2.171-3.575.585.585 0 0 1 .815-.16.593.593 0 0 1 .158.821 47.261 47.261 0 0 0-2.117 3.488.587.587 0 0 1-.514.298Zm79.36-5.392a.582.582 0 0 1-.471-.238 46.922 46.922 0 0 0-2.561-3.17.593.593 0 0 1 .049-.835.582.582 0 0 1 .828.049 49.681 49.681 0 0 1 2.625 3.249.6.6 0 0 1-.12.829.588.588 0 0 1-.35.114Zm-74.776-1.47a.58.58 0 0 1-.368-.131.6.6 0 0 1-.089-.833 49.385 49.385 0 0 1 2.749-3.144.583.583 0 0 1 .83-.016.6.6 0 0 1 .017.836 47.283 47.283 0 0 0-2.682 3.068.584.584 0 0 1-.457.218Zm69.324-4.712a.589.589 0 0 1-.4-.161 46.401 46.401 0 0 0-3.064-2.68.6.6 0 0 1-.094-.832.583.583 0 0 1 .824-.1 48.186 48.186 0 0 1 3.141 2.747.594.594 0 0 1 .023.836.582.582 0 0 1-.43.188Zm-63.637-1.253a.584.584 0 0 1-.442-.2.6.6 0 0 1 .055-.835c1.038-.917 2.13-1.8 3.244-2.621a.583.583 0 0 1 .82.127.594.594 0 0 1-.127.827 46.38 46.38 0 0 0-3.164 2.557.582.582 0 0 1-.386.143Zm57.211-3.893a.577.577 0 0 1-.324-.1 46.698 46.698 0 0 0-3.476-2.107.6.6 0 0 1-.236-.8.587.587 0 0 1 .8-.237 48.158 48.158 0 0 1 3.563 2.16.6.6 0 0 1 .166.82.586.586 0 0 1-.493.262Zm-50.593-1a.587.587 0 0 1-.5-.284.6.6 0 0 1 .2-.813 48.245 48.245 0 0 1 3.643-2.017.584.584 0 0 1 .786.268.594.594 0 0 1-.266.793c-1.207.6-2.4 1.263-3.553 1.968a.586.586 0 0 1-.31.087Zm43.381-2.954a.573.573 0 0 1-.234-.05 46.039 46.039 0 0 0-3.786-1.466.592.592 0 0 1 .372-1.123c1.312.443 2.618.948 3.883 1.5a.6.6 0 0 1 .3.779.588.588 0 0 1-.535.362Zm-36.028-.707a.585.585 0 0 1-.546-.377.592.592 0 0 1 .333-.766 47.818 47.818 0 0 1 3.936-1.35.584.584 0 0 1 .728.4.593.593 0 0 1-.4.733 45.7 45.7 0 0 0-3.838 1.316.592.592 0 0 1-.213.046Zm28.248-1.921a.591.591 0 0 1-.138-.016 46.236 46.236 0 0 0-3.98-.78.592.592 0 0 1 .174-1.171c1.367.206 2.739.476 4.08.8a.592.592 0 0 1-.136 1.169Zm-20.373-.4a.592.592 0 0 1-.114-1.172 48.165 48.165 0 0 1 4.108-.639.592.592 0 0 1 .129 1.177 46.678 46.678 0 0 0-4.008.623.567.567 0 0 1-.114.016Zm12.259-.826h-.036a47.314 47.314 0 0 0-4.055-.078.6.6 0 0 1-.6-.578.59.59 0 0 1 .573-.605 48.415 48.415 0 0 1 4.155.079.592.592 0 0 1-.037 1.187Zm-4.735 83.321h-.029a35.7 35.7 0 0 1-4.149-.448.59.59 0 0 1-.483-.68.582.582 0 0 1 .675-.487 34.707 34.707 0 0 0 4.014.433.592.592 0 0 1-.028 1.187Zm4.1-.032a.592.592 0 0 1-.038-1.183 35.065 35.065 0 0 0 4.006-.5.592.592 0 0 1 .211 1.165 36.037 36.037 0 0 1-4.14.514Zm-12.19-1.321a.622.622 0 0 1-.163-.023 35.7 35.7 0 0 1-3.937-1.4.593.593 0 0 1-.313-.775.585.585 0 0 1 .768-.317 34.464 34.464 0 0 0 3.812 1.363.593.593 0 0 1-.163 1.157Zm20.252-.165a.592.592 0 0 1-.171-1.157 34.984 34.984 0 0 0 3.786-1.411.583.583 0 0 1 .773.3.593.593 0 0 1-.3.779 35.871 35.871 0 0 1-3.913 1.464.57.57 0 0 1-.171.03Zm-27.814-3.035a.582.582 0 0 1-.288-.077 36.1 36.1 0 0 1-3.51-2.277.594.594 0 0 1-.129-.826.583.583 0 0 1 .82-.13 35.365 35.365 0 0 0 3.4 2.2.6.6 0 0 1 .223.806.586.586 0 0 1-.512.309Zm35.318-.285a.588.588 0 0 1-.507-.293.594.594 0 0 1 .21-.809 34.982 34.982 0 0 0 3.359-2.256.582.582 0 0 1 .822.117.593.593 0 0 1-.116.828 36.023 36.023 0 0 1-3.472 2.331.571.571 0 0 1-.292.087Zm-41.944-4.581a.582.582 0 0 1-.4-.157 36.463 36.463 0 0 1-2.9-3.024.594.594 0 0 1 .061-.834.582.582 0 0 1 .828.063 35.7 35.7 0 0 0 2.806 2.925.594.594 0 0 1 .034.836.581.581 0 0 1-.425.196ZM416.44 978a.579.579 0 0 1-.425-.184.594.594 0 0 1 .021-.836 35.444 35.444 0 0 0 2.761-2.971.583.583 0 0 1 .826-.075.594.594 0 0 1 .075.833 36.837 36.837 0 0 1-2.853 3.071.586.586 0 0 1-.405.162Zm-53.84-5.87a.588.588 0 0 1-.487-.259 36.793 36.793 0 0 1-2.137-3.612.6.6 0 0 1 .25-.8.585.585 0 0 1 .791.252 35.638 35.638 0 0 0 2.068 3.5.593.593 0 0 1-.157.821.579.579 0 0 1-.328.098Zm59.09-.474a.577.577 0 0 1-.321-.1.594.594 0 0 1-.17-.819 35.334 35.334 0 0 0 2.013-3.53.584.584 0 0 1 .788-.264.594.594 0 0 1 .262.794 36.578 36.578 0 0 1-2.081 3.648.584.584 0 0 1-.49.271Zm-62.873-6.856a.587.587 0 0 1-.549-.381 36.653 36.653 0 0 1-1.254-4.013.587.587 0 1 1 1.138-.29 35.415 35.415 0 0 0 1.213 3.884.591.591 0 0 1-.34.763.564.564 0 0 1-.208.037Zm66.541-.539a.581.581 0 0 1-.2-.035.593.593 0 0 1-.352-.758 35.169 35.169 0 0 0 1.151-3.9.587.587 0 1 1 1.143.27 36.364 36.364 0 0 1-1.19 4.035.589.589 0 0 1-.552.389Zm-68.546-7.474a.588.588 0 0 1-.581-.514 36.944 36.944 0 0 1-.3-4.194.59.59 0 0 1 .578-.6h.009a.59.59 0 0 1 .587.583 35.474 35.474 0 0 0 .294 4.058.591.591 0 0 1-.5.664.691.691 0 0 1-.087.004Zm70.422-.572h-.067a.591.591 0 0 1-.516-.655 36.278 36.278 0 0 0 .23-4.065c0-.381-.006-.761-.018-1.137a.587.587 0 1 1 1.173-.038c.013.391.019.782.018 1.176a37.477 37.477 0 0 1-.237 4.2.589.589 0 0 1-.583.52Zm-70.551-7.688h-.059a.591.591 0 0 1-.526-.647 36.881 36.881 0 0 1 .65-4.156.587.587 0 1 1 1.147.252 35.606 35.606 0 0 0-.629 4.02.589.589 0 0 1-.583.532Zm70.4-1.722a.589.589 0 0 1-.581-.5 35.332 35.332 0 0 0-.821-3.985.591.591 0 0 1 .414-.725.585.585 0 0 1 .719.417 36.577 36.577 0 0 1 .85 4.12.591.591 0 0 1-.5.671.633.633 0 0 1-.08.003Zm-68.656-6.354a.58.58 0 0 1-.191-.032.592.592 0 0 1-.364-.752 36.439 36.439 0 0 1 1.585-3.895.583.583 0 0 1 .783-.277.6.6 0 0 1 .275.79 35.3 35.3 0 0 0-1.534 3.767.588.588 0 0 1-.553.4Zm66.523-1.623a.588.588 0 0 1-.545-.373 35.122 35.122 0 0 0-1.711-3.683.594.594 0 0 1 .237-.8.585.585 0 0 1 .8.238 36.5 36.5 0 0 1 1.768 3.808.592.592 0 0 1-.327.769.576.576 0 0 1-.221.042ZM361.976 933a.578.578 0 0 1-.313-.092.594.594 0 0 1-.183-.816 36.356 36.356 0 0 1 2.43-3.421.583.583 0 0 1 .825-.089.6.6 0 0 1 .089.832 35.26 35.26 0 0 0-2.352 3.31.583.583 0 0 1-.496.276Zm59.077-1.436a.583.583 0 0 1-.481-.252 35.61 35.61 0 0 0-2.506-3.192.6.6 0 0 1 .048-.834.583.583 0 0 1 .829.048 36.372 36.372 0 0 1 2.589 3.3.593.593 0 0 1-.143.823.572.572 0 0 1-.336.107Zm-53.928-5a.583.583 0 0 1-.418-.177.6.6 0 0 1 .006-.837 36.633 36.633 0 0 1 3.14-2.771.584.584 0 0 1 .824.1.6.6 0 0 1-.1.831 35.233 35.233 0 0 0-3.037 2.681.587.587 0 0 1-.415.177Zm48.48-1.178a.58.58 0 0 1-.391-.15 35.539 35.539 0 0 0-3.163-2.533.593.593 0 0 1-.142-.823.584.584 0 0 1 .818-.144 36.6 36.6 0 0 1 3.273 2.621.594.594 0 0 1 .048.835.581.581 0 0 1-.443.198Zm-42.012-3.9a.583.583 0 0 1-.5-.285.594.594 0 0 1 .2-.812 36.1 36.1 0 0 1 3.684-1.973.587.587 0 0 1 .778.292.594.594 0 0 1-.288.785 34.539 34.539 0 0 0-3.564 1.907.588.588 0 0 1-.31.093Zm35.307-.86a.569.569 0 0 1-.28-.073 34.636 34.636 0 0 0-3.655-1.731.594.594 0 0 1-.326-.77.584.584 0 0 1 .763-.329 36.014 36.014 0 0 1 3.779 1.791.594.594 0 0 1 .235.8.586.586 0 0 1-.516.319Zm-27.858-2.582a.592.592 0 0 1-.181-1.155 35.516 35.516 0 0 1 4.038-1.061.591.591 0 0 1 .229 1.16 34.55 34.55 0 0 0-3.9 1.027.575.575 0 0 1-.186.036Zm20.248-.494a.6.6 0 0 1-.155-.021 34.79 34.79 0 0 0-3.951-.834.591.591 0 0 1 .174-1.17 35.889 35.889 0 0 1 4.085.862.592.592 0 0 1-.153 1.17Zm-12.212-1.123a.592.592 0 0 1-.047-1.181 35.773 35.773 0 0 1 2.947-.121c.424-.009.818.006 1.225.02a.591.591 0 0 1 .566.612.585.585 0 0 1-.605.571c-.394-.013-.771-.008-1.186-.02-.948 0-1.908.04-2.852.117Z" transform="translate(-332 -891)" style="fill:#ffb534;fill-rule:evenodd"/></svg><svg viewBox="0 0 20.03 20" id="search" xmlns="http://www.w3.org/2000/svg"><path d="m1439.89 63.7-5.81-5.81a7.944 7.944 0 1 0-1.18 1.178l5.81 5.81a.417.417 0 0 0 .59 0l.59-.589a.421.421 0 0 0 0-.589Zm-11.96-4.533a6.25 6.25 0 1 1 6.25-6.25 6.254 6.254 0 0 1-6.25 6.246Z" transform="translate(-1420 -45)" style="fill:#29282d;fill-rule:evenodd"/></svg><svg viewBox="0 0 20 20" id="user" xmlns="http://www.w3.org/2000/svg"><path fill="#29282d" fill-rule="evenodd" d="M17.07 12.928a9.923 9.923 0 0 0-3.8-2.383 5.78 5.78 0 1 0-6.54 0A10.018 10.018 0 0 0 0 20h1.56a8.44 8.44 0 0 1 16.88 0H20a9.931 9.931 0 0 0-2.93-7.072ZM5.78 5.78A4.22 4.22 0 1 1 10 10a4.222 4.222 0 0 1-4.22-4.22Z"/></svg></svg>